/* XPM */
static char *f740c6eccfd74239932d185ae45e636fMg1KajGip148sQEz[] = {
/* columns rows colors chars-per-pixel */
"296 34 32 1 ",
"  c white",
". c #EFEFEF",
"X c #DFDFDF",
"o c gray81",
"O c gray75",
"+ c #AFAFAF",
"@ c #9F9F9F",
"# c gray56",
"$ c gray50",
"% c gray44",
"& c #606060",
"* c #505050",
"= c gray25",
"- c gray19",
"; c #202020",
": c #101010",
"> c black",
", c black",
"< c black",
"1 c black",
"2 c black",
"3 c black",
"4 c black",
"5 c black",
"6 c black",
"7 c black",
"8 c black",
"9 c black",
"0 c black",
"q c black",
"w c black",
"e c black",
/* pixels */
"                                                                                                                             X$=$X                                       .#*%o                                                                                                                          ",
"                                                                                                                            o:>>>:o                                     .->>>>+                                                                                                                         ",
"      O==;                   XX                                                                                         +   ->+ #>*                                     &>$ O:;   O                                                                                                                     ",
"      @>>>                   ->-@                                                                                      o>&  >*   =>                                     =;   %>o +>&                                                                                                                    ",
"      O>>>X                 .>>>@                                                                                     o:>>O >-   ;:                                     =:.  &>X ;>>%                                                                                                                   ",
"      .>>>O                 @>>>X                                                                                    .;>>$  &>*+*>%        X                   XX       @>-+&>=  o:>>@                                                                                                                  ",
"       >>>#                 *>>-                                                                                     *>>&   .=>>>*.      O;;                   =:$.      %>>>-.   o>>:X                                                                             =>>>O   >>>>o   >>>>   O>>>:   O>>>=",
"       =>>$                .>>>*OOOOOOo                                                                             +>>-.     oOo       @>>>@                 O>>>%       XOO      #>>=                                                                             =>>>O   >>>>    >>>>   O>>>=   O>>>=",
"       *>>=  OO#@          @>>>>>>>>>>=                                                                             ;>>o                .;>>:.                ;>>:.                 =>>@                                                                            =>>>O   :>>>    >>>>   X>>>=   O>>>=",
"    OO#=>>>>>>>>=          =>>>>>>>>>>=                                                                            @>>&                  @>>>$               @>>>$                  o>>;                                                                            =>>>O   =>>>    >>>>    >>>=   O>>>=",
" @>>>>>>>>>>>>>>>         X>>>>>>>>>>>=                                                                            ->>X                   ->>:X             .:>>;.                   =>>O                                                                           =>>>    =>>>    >>>=    >>>=   O>>>$",
" O>>>>>>>>>>>>>>=         %>>>X    %>>=                                                                           o>>-                    O>>>;=============->>>@                    @>>&                                                                           &>>>    =>>>    ->>=    >>>=   .>>>$",
" O>>>>>=>>>$Oo           .:>>*     =>>=                                                                           $>>#                     =>>>>>>>>>>>>>>>>>>>-                     .>>:                                                                           $>>>    =>>>    =>>=    >>>=    >>>$",
"  @Oo   >>>@             @>>>O     ;>>$                                                                           =>>o                     X>>>>>>>>>>>>>>>>>>>O                      =>>o                                                                          $>>>    =>>-    =>>=    >>>%    >>>$",
"        ->>$            .;>>;      >>>@                                                                           >>>                       &>>>;=========->>>=                       $>>@                                                                          $>>>    $>>=    =>>=    =>>$    >>>$",
"        =>>*            $>>>@ @   O>>>o  $$$$$$$$$$$$$$$$$$$$$$$$$$$$$$$$$$$$$$$$$$$$$$$$$$$$$$$$$$$$$$$$$$$$$$$ .>>=                       .:>>;         =>>>X                       #>>$ $$$$$$$$$$$$$$$$$$$$$$$$$$$$$$$$$$$$$$$$$$$$$$$$$$$$$$$$$$$$$$$$$$$$$$$  $>>>    $>>=    =>>=    =>>$    >>>$",
"        %>>=           X:>>; &>&  $>>>   >>>>>>>>>>>>>>>>>>>>>>>>>>>>>>>>>>>>>>>>>>>>>>>>>>>>>>>>>>>>>>>>>>>>>>> O>>=                        $>>>@       O>>>&                        O>>* >>>>>>>>>>>>>>>>>>>>>>>>>>>>>>>>>>>>>>>>>>>>>>>>>>>>>>>>>>>>>>>>>>>>>>>  #>>;    $>>=    *>>&    =>>$    ;>>@",
"        $>>:    .O+$   +>>>O%>>>& ->>=   >>>>>>>>>>>>>>>>>>>>>>>>>>>>>>>>>>>>>>>>>>>>>>>>>>>>>>>>>>>>>>>>>>>>>>> O>>=                        .;>>:.      ->>:.                        O>>= >>>>>>>>>>>>>>>>>>>>>>>>>>>>>>>>>>>>>>>>>>>>>>>>>>>>>>>>>>>>>>>>>>>>>>>  O>>=    $>>=    $>>$    =>>$    =>>O",
"        O>>>%=->>>>>.   @>* o:>>>=>>>#   >>>>>>>>>>>>>>>>>>>>>>>>>>>>>>>>>>>>>>>>>>>>>>>>>>>>>>>>>>>>>>>>>>>>>>> O>>=                         @>>>$     @>>>$                         O>>= >>>>>>>>>>>>>>>>>>>>>>>>>>>>>>>>>>>>>>>>>>>>>>>>>>>>>>>>>>>>>>>>>>>>>>>  O>>=    $>>=    $>>$    =>>$    =>>O",
"XO@$%=->>>>>>>>>>>>>O    +.  o:>>>>>>X   $$$$$$$$$$$$$$$$$$$$$$$$$$$$$$$$$$$$$$$$$$$$$$$$$$$$$$$$$$$$$$$$$$$$$$$ O>>=                          ->>:X   .;>>:.                         O>>= $$$$$$$$$$$$$$$$$$$$$$$$$$$$$$$$$$$$$$$$$$$$$$$$$$$$$$$$$$$$$$$$$$$$$$$  O>>=    @>>*    $>>$    %>>#    =>>O",
"=>>>>>>>>>>>>>>>>>>;o         o:>>>>-                                                                            o>>=                          O>>>&   $>>>@                          @>>$                                                                          O>>=    O>>$    $>>$    $>>O    =>>O",
"%>>>>>>>>>>>;&$@OX             o:>>>-.                                                                            >>>                           =>>>o .:>>;                           $>>#                                                                          O>>=    O>>$    $>>$    $>>O    =>>O",
"$>>;=&$@O->>&                   ;>>>>-.                                                                           ->>o                          X>>>= &>>>O                           =>>O                                                                          .$$@    X$$O    X$$O    O$$X    O$$X",
"XX       &>>=                  #>>>>>>-                                                                           %>>#                           %>>>@>>>=                           .>>>                                                                                                               ",
"         $>>;                 .:>>:->>@                                                                           +>>-                           .:>>>>>>o                           @>>*                                                                                                               ",
"         +>>>                 =>>>@.-@                                                                             :>>X                           $>>>>>&                            *>>@                                                                                                               ",
"         O>>>o               $>>>=                                                                                 %>>$                            ;>>>:X                           X>>:.                                                                           XOOO    XOOo    oOOo    oOOX    OOOX",
"          >>>O              @>>>:X                                                                                 X>>:.                           @>>>$                            &>>$                                                                            $>>>    $>>=    =>>=    =>>$    >>>$",
"          :>>$             @>>>>+                                                                                   $>>=                            =>:.                           +>>:.                                                                            $>>>    $>>=    =>>=    =>>$    >>>$",
"          =>>%            #>>>>@                                                                                    .;>>%                           O>@                           o:>>@                                                                             $>>>    $>>=    =>>=    =>>$    >>>$",
"          *>>=           $>>>>%                                                                                      +>>>@                           $                           .->>*                                                                                                                  ",
"          $>>-           o:>>@                                                                                        $>>>X                                                      =>>-.                                                                                                                  ",
"          @>>>            #:+                                                                                          &>*                                                       @>:.                                                                                                                   ",
"          o%$O             X                                                                                            #.                                                        +o                                                                                                                    "
};
